<?xml version="1.0" standalone="no"?>
<!DOCTYPE svg PUBLIC "-//W3C//DTD SVG 20010904//EN"
 "http://www.w3.org/TR/2001/REC-SVG-20010904/DTD/svg10.dtd">
<svg version="1.0" xmlns="http://www.w3.org/2000/svg"
 width="385.000000pt" height="218.000000pt" viewBox="0 0 385.000000 218.000000"
 preserveAspectRatio="xMidYMid meet">

<g transform="translate(0.000000,218.000000) scale(0.100000,-0.100000)"
fill="#000000" stroke="none">
<path d="M854 1540 c-17 -7 -97 -53 -174 -100 -8 -5 -37 -21 -65 -36 -134 -71
-185 -108 -191 -139 -3 -17 -4 -106 -2 -197 3 -154 5 -168 23 -182 19 -14 149
-90 260 -151 28 -16 67 -39 88 -52 64 -40 84 -45 120 -27 18 9 119 66 225 127
l192 110 0 202 0 202 -192 110 c-188 108 -254 144 -260 142 -2 0 -12 -4 -24
-9z m209 -190 c81 -46 146 -84 145 -85 -14 -12 -322 -185 -329 -185 -10 0 -69
32 -202 112 -55 32 -103 58 -107 58 -5 0 -11 4 -14 9 -3 5 38 34 92 64 53 31
113 65 132 76 19 11 45 25 57 30 11 5 24 15 28 21 5 8 13 7 28 -3 12 -7 88
-51 170 -97z m-480 -205 c32 -19 62 -35 67 -35 18 0 21 -20 3 -27 -10 -4 -43
-22 -73 -40 -30 -18 -58 -33 -62 -33 -5 0 -8 38 -8 85 0 47 3 85 8 85 4 0 33
-16 65 -35z m667 -50 c0 -47 -3 -85 -6 -85 -15 0 -144 76 -144 85 0 9 126 84
143 85 4 0 7 -38 7 -85z m-460 -70 c84 -47 89 -48 146 -15 30 16 58 30 63 30
5 0 42 -19 83 -42 40 -23 82 -46 93 -52 12 -6 22 -15 23 -19 2 -5 -70 -51
-160 -102 -125 -71 -166 -90 -177 -82 -14 12 -46 31 -71 44 -82 40 -239 136
-235 144 4 5 10 9 15 9 5 0 46 22 92 50 46 27 88 50 93 50 6 0 21 -7 35 -15z"/>
<path d="M1620 1100 l0 -230 35 0 c28 0 36 4 41 24 l6 24 36 -24 c71 -48 135
-44 193 14 96 97 56 285 -67 312 -45 10 -108 -1 -133 -24 -10 -9 -21 -16 -24
-16 -4 0 -7 34 -7 75 l0 75 -40 0 -40 0 0 -230z m244 23 c20 -22 26 -38 26
-75 0 -61 -7 -76 -41 -93 -106 -56 -200 81 -114 167 36 36 96 37 129 1z"/>
<path d="M2810 1119 l0 -191 28 -28 c53 -53 158 -49 202 7 25 32 22 45 -15 54
-21 6 -34 3 -53 -11 -31 -25 -37 -25 -62 0 -17 17 -20 33 -20 105 l0 85 70 0
70 0 0 40 0 40 -70 0 -70 0 0 45 0 45 -40 0 -40 0 0 -191z"/>
<path d="M2170 1221 c-52 -11 -77 -27 -110 -73 -26 -35 -30 -50 -30 -103 0
-48 5 -70 23 -96 47 -71 126 -101 207 -80 61 16 91 39 118 91 73 144 -46 292
-208 261z m111 -100 c24 -24 29 -38 29 -76 0 -121 -152 -145 -190 -30 -10 30
-9 41 7 72 33 68 104 83 154 34z"/>
<path d="M2550 1223 c-73 -10 -124 -76 -100 -133 16 -40 45 -56 121 -70 80
-15 99 -25 99 -54 0 -28 -16 -36 -78 -36 -32 0 -52 6 -68 21 -17 16 -29 19
-58 14 -43 -9 -45 -18 -8 -55 84 -83 276 -56 297 42 15 65 -31 113 -117 123
-76 10 -108 24 -108 50 0 42 86 50 123 13 20 -20 28 -22 60 -14 20 5 37 14 37
19 0 21 -72 77 -98 77 -15 0 -36 2 -47 4 -11 2 -36 1 -55 -1z"/>
<path d="M3225 1225 c-5 -2 -22 -6 -38 -9 -105 -24 -140 -218 -55 -304 58 -60
155 -65 209 -11 19 19 19 19 29 -6 8 -20 16 -25 45 -25 l35 0 0 175 0 175 -36
0 c-27 0 -37 -5 -41 -20 -7 -25 -7 -25 -41 -1 -26 18 -86 33 -107 26z m112
-110 c17 -19 23 -39 23 -72 0 -37 -5 -50 -31 -74 -43 -40 -90 -40 -130 1 -26
25 -30 36 -28 77 2 38 9 54 31 77 25 25 34 28 71 23 28 -4 49 -14 64 -32z"/>
</g>
</svg>
